<svg width="160" height="160" viewBox="0 0 160 160" fill="none" xmlns="http://www.w3.org/2000/svg">
<circle cx="80" cy="80" r="80" fill="#FF9F00"/>
<path d="M63.5 84.6867L75.28 96.4733L70.57 101.187L75.2867 105.903L70.5733 110.617L62.3233 102.367L52.8933 111.797L48.18 107.083L57.61 97.65L49.36 89.4033L54.0733 84.69L58.7867 89.4L63.4967 84.6867H63.5ZM50 50L61.82 50.01L101.21 89.4033L105.927 84.69L110.64 89.4033L102.393 97.6533L111.82 107.083L107.107 111.797L97.6767 102.367L89.4267 110.617L84.7133 105.903L89.4267 101.187L50.01 61.77L50 50ZM98.19 50L110 50.01L110.007 61.7533L96.4967 75.26L84.71 63.4767L98.19 50Z" fill="white"/>
</svg>
