<svg width="80" height="80" viewBox="0 0 80 80" fill="none" xmlns="http://www.w3.org/2000/svg">
<g clip-path="url(#clip0)">
<path d="M79.2699 64.27L54.9999 40L79.2699 15.73C79.7349 15.2593 79.9957 14.6242 79.9957 13.9625C79.9957 13.3008 79.7349 12.6658 79.2699 12.195L67.8049 0.730015C67.5731 0.497352 67.2976 0.312743 66.9943 0.186779C66.691 0.0608138 66.3658 -0.00402832 66.0374 -0.00402832C65.709 -0.00402832 65.3838 0.0608138 65.0805 0.186779C64.7772 0.312743 64.5017 0.497352 64.2699 0.730015L39.9999 25L15.7299 0.730015C15.2611 0.261337 14.6253 -0.00195123 13.9624 -0.00195123C13.2995 -0.00195123 12.6637 0.261337 12.1949 0.730015L0.729893 12.195C0.49723 12.4268 0.312621 12.7023 0.186656 13.0056C0.0606917 13.3089 -0.00415039 13.6341 -0.00415039 13.9625C-0.00415039 14.2909 0.0606917 14.6161 0.186656 14.9194C0.312621 15.2228 0.49723 15.4982 0.729893 15.73L24.9999 40L0.729893 64.27C0.261215 64.7388 -0.0020733 65.3746 -0.0020733 66.0375C-0.0020733 66.7004 0.261215 67.3362 0.729893 67.805L12.1949 79.27C12.4267 79.5027 12.7022 79.6873 13.0055 79.8133C13.3088 79.9392 13.634 80.0041 13.9624 80.0041C14.2908 80.0041 14.616 79.9392 14.9193 79.8133C15.2226 79.6873 15.4981 79.5027 15.7299 79.27L39.9999 55L64.2699 79.27C64.7387 79.7387 65.3745 80.002 66.0374 80.002C66.7003 80.002 67.3361 79.7387 67.8049 79.27L79.2699 67.805C79.5026 67.5732 79.6872 67.2978 79.8131 66.9944C79.9391 66.6911 80.0039 66.3659 80.0039 66.0375C80.0039 65.7091 79.9391 65.3839 79.8131 65.0806C79.6872 64.7773 79.5026 64.5018 79.2699 64.27Z" fill="#EE172F"/>
</g>
<defs>
<clipPath id="clip0">
<rect width="80" height="80" fill="white"/>
</clipPath>
</defs>
</svg>
