<svg width="80" height="80" viewBox="0 0 80 80" fill="none" xmlns="http://www.w3.org/2000/svg">
<path d="M13.4967 19.34L26.18 30.5L37.48 16.5867C37.7965 16.1977 38.1965 15.8851 38.6505 15.6722C39.1045 15.4593 39.6006 15.3516 40.102 15.357C40.6034 15.3625 41.0971 15.481 41.5464 15.7037C41.9956 15.9264 42.3888 16.2476 42.6967 16.6433L53.48 30.4967L66.5734 19.1767C67.0875 18.733 67.725 18.457 68.4003 18.3856C69.0756 18.3142 69.7567 18.4507 70.3523 18.777C70.9479 19.1032 71.4297 19.6036 71.7331 20.2112C72.0365 20.8188 72.1471 21.5045 72.05 22.1767L67.05 56.6667H13.0734L7.9967 22.3333C7.89586 21.6574 8.00518 20.9669 8.30987 20.3552C8.61456 19.7435 9.09988 19.2403 9.7001 18.9136C10.3003 18.587 10.9865 18.4527 11.6655 18.5289C12.3446 18.6052 12.9839 18.8883 13.4967 19.34ZM13.3334 60H66.6667V63.3333C66.6667 64.2174 66.3155 65.0652 65.6904 65.6903C65.0653 66.3155 64.2174 66.6667 63.3334 66.6667H16.6667C15.7826 66.6667 14.9348 66.3155 14.3097 65.6903C13.6846 65.0652 13.3334 64.2174 13.3334 63.3333V60Z" fill="#287B51"/>
</svg>
